<svg width="1000" height="1000" viewBox="0 0 1000 1000" xmlns="http://www.w3.org/2000/svg"><defs/><path fill="#305a8f" transform="matrix(0.5076225184705376 0 0 0.5076225184705376 -8.226334057849112 4.973012563447572)" d="M 1100.45938010762 880.56840818182 C 1097.15938010762 869.06840818182 1089.35938010762 858.46840818182 1078.75938010762 852.76840818182 C 1069.45938010762 847.86840818182 1058.75938010762 846.56840818182 1053.45938010762 836.36840818182 C 1050.65938010762 830.96840818182 1050.05938010762 824.76840818182 1049.55938010762 818.76840818182 C 1048.55938010762 806.26840818182 1047.95938010762 793.66840818182 1047.75938010762 781.06840818182 C 1047.35938010762 755.36840818182 1075.85938010762 745.56840818182 1097.75938010762 750.96840818182 C 1112.35938010762 754.66840818182 1125.05938010762 763.56840818182 1136.65938010762 773.16840818182 C 1145.55938010762 780.46840818182 1154.35938010762 788.96840818182 1157.35938010762 799.96840818182 C 1159.85938010762 809.26840818182 1157.95938010762 819.16840818182 1155.75938010762 828.46840818182 C 1147.55938010762 862.66840818182 1134.65938010762 895.56840818182 1119.05938010762 927.16840818182 C 1146.35938010762 899.36840818182 1163.15938010762 861.36840818182 1163.15938010762 819.36840818182 C 1163.15938010762 733.96840818182 1093.55938010762 664.86840818182 1008.05938010762 665.56840818182 C 1008.05938010762 665.56840818182 1008.05938010762 665.56840818182 1008.05938010762 665.56840818182 C 1008.15938010762 669.96840818182 1007.55938010762 674.56840818182 1006.65938010762 678.86840818182 C 1003.55938010762 695.16840818182 997.85938010762 711.76840818182 985.65938010762 722.86840818182 C 979.95938010762 727.96840818182 973.15938010762 731.76840818182 967.45938010762 736.86840818182 C 960.45938010762 743.26840818182 955.05938010762 753.06840818182 960.05938010762 762.46840818182 C 962.95938010762 767.86840818182 969.65938010762 770.06840818182 974.95938010762 767.06840818182 C 981.85938010762 763.16840818182 981.85938010762 754.76840818182 990.35938010762 758.26840818182 C 995.75938010762 760.46840818182 997.55938010762 769.86840818182 1002.75938010762 772.96840818182 C 1010.75938010762 777.66840818182 1018.75938010762 782.36840818182 1026.85938010762 787.16840818182 C 1031.35938010762 789.86840818182 1029.75938010762 796.76840818182 1024.55938010762 797.06840818182 C 1013.95938010762 797.66840818182 996.85938010762 782.36840818182 990.55938010762 781.16840818182 C 979.45938010762 778.96840818182 968.35938010762 784.56840818182 957.05938010762 784.66840818182 C 938.75938010762 784.76840818182 920.25938010762 771.06840818182 907.95938010762 758.56840818182 C 894.15938010762 744.56840818182 892.85938010762 731.06840818182 896.75938010762 714.56840818182 C 871.25938010762 741.96840818182 855.55938010762 778.66840818182 855.45938010762 819.06840818182 C 855.25938010762 903.66840818182 924.35938010762 973.06840818182 1008.95938010762 973.26840818182 C 1038.75938010762 973.36840818182 1066.45938010762 964.96840818182 1090.05938010762 950.36840818182 C 1092.75938010762 943.06840818182 1095.45938010762 935.86840818182 1097.75938010762 928.46840818182 C 1102.45938010762 912.96840818182 1104.95938010762 896.16840818182 1100.45938010762 880.56840818182 Z"/><path fill="#305a8f" transform="matrix(0.5076225184705376 0 0 0.5076225184705376 -8.226334057849112 4.973012563447572)" d="M 1227.85938010762 679.76840818182 L 1197.85938010762 654.36840818182 L 1207.45938010762 587.56840818182 C 1202.05938010762 582.96840818182 1193.75938010762 584.96840818182 1190.95938010762 591.46840818182 L 1173.25938010762 633.46840818182 L 1143.25938010762 608.06840818182 L 1144.25938010762 590.26840818182 L 1136.05938010762 583.36840818182 L 1125.35938010762 607.06840818182 L 1103.75938010762 621.56840818182 L 1111.95938010762 628.46840818182 L 1129.35938010762 624.46840818182 L 1159.35938010762 649.86840818182 L 1120.85938010762 674.36840818182 C 1114.85938010762 678.16840818182 1114.25938010762 686.66840818182 1119.75938010762 691.26840818182 L 1119.75938010762 691.26840818182 L 1183.95938010762 670.66840818182 L 1213.75938010762 695.86840818182 C 1218.25938010762 699.66840818182 1225.15938010762 699.36840818182 1229.05938010762 694.96840818182 C 1233.05938010762 690.46840818182 1232.45938010762 683.66840818182 1227.85938010762 679.76840818182 Z"/><path fill="#305a8f" transform="matrix(0.5076225184705376 0 0 0.5076225184705376 -8.226334057849112 4.973012563447572)" d="M 937.25938010762 1052.16840818182 C 940.95938010762 1053.46840818182 944.75938010762 1054.56840818182 948.45938010762 1055.66840818182 L 952.15938010762 1042.46840818182 C 948.65938010762 1041.46840818182 945.05938010762 1040.36840818182 941.55938010762 1039.16840818182 L 937.25938010762 1052.16840818182 Z"/><path fill="#305a8f" transform="matrix(0.5076225184705376 0 0 0.5076225184705376 -8.226334057849112 4.973012563447572)" d="M 785.95938010762 791.76840818182 L 772.35938010762 790.16840818182 C 771.35938010762 798.06840818182 770.85938010762 806.06840818182 770.65938010762 814.06840818182 L 784.35938010762 814.36840818182 C 784.45938010762 806.76840818182 785.05938010762 799.16840818182 785.95938010762 791.76840818182 Z"/><path fill="#305a8f" transform="matrix(0.5076225184705376 0 0 0.5076225184705376 -8.226334057849112 4.973012563447572)" d="M 796.35938010762 929.56840818182 C 799.95938010762 936.66840818182 803.85938010762 943.66840818182 808.15938010762 950.36840818182 L 819.75938010762 943.06840818182 C 815.75938010762 936.66840818182 812.05938010762 930.06840818182 808.65938010762 923.36840818182 L 796.35938010762 929.56840818182 Z"/><path fill="#305a8f" transform="matrix(0.5076225184705376 0 0 0.5076225184705376 -8.226334057849112 4.973012563447572)" d="M 792.45938010762 881.36840818182 L 779.25938010762 884.96840818182 C 781.35938010762 892.66840818182 783.85938010762 900.26840818182 786.75938010762 907.66840818182 L 799.55938010762 902.76840818182 C 796.85938010762 895.76840818182 794.45938010762 888.56840818182 792.45938010762 881.36840818182 Z"/><path fill="#305a8f" transform="matrix(0.5076225184705376 0 0 0.5076225184705376 -8.226334057849112 4.973012563447572)" d="M 839.85938010762 669.46840818182 L 829.45938010762 660.56840818182 C 824.25938010762 666.56840818182 819.35938010762 672.96840818182 814.75938010762 679.46840818182 L 825.95938010762 687.36840818182 C 830.25938010762 681.16840818182 834.95938010762 675.16840818182 839.85938010762 669.46840818182 Z"/><path fill="#305a8f" transform="matrix(0.5076225184705376 0 0 0.5076225184705376 -8.226334057849112 4.973012563447572)" d="M 795.75938010762 747.66840818182 L 782.75938010762 743.36840818182 C 780.25938010762 750.96840818182 778.15938010762 758.66840818182 776.45938010762 766.46840818182 L 789.85938010762 769.46840818182 C 791.35938010762 762.16840818182 793.35938010762 754.86840818182 795.75938010762 747.66840818182 Z"/><path fill="#305a8f" transform="matrix(0.5076225184705376 0 0 0.5076225184705376 -8.226334057849112 4.973012563447572)" d="M 872.35938010762 638.16840818182 L 863.85938010762 627.36840818182 C 857.65938010762 632.26840818182 851.55938010762 637.56840818182 845.85938010762 643.06840818182 L 855.35938010762 652.96840818182 C 860.75938010762 647.76840818182 866.45938010762 642.76840818182 872.35938010762 638.16840818182 Z"/><path fill="#305a8f" transform="matrix(0.5076225184705376 0 0 0.5076225184705376 -8.226334057849112 4.973012563447572)" d="M 813.95938010762 706.36840818182 L 801.95938010762 699.66840818182 C 798.05938010762 706.56840818182 794.45938010762 713.76840818182 791.25938010762 721.06840818182 L 803.75938010762 726.56840818182 C 806.85938010762 719.76840818182 810.25938010762 712.96840818182 813.95938010762 706.36840818182 Z"/><path fill="#305a8f" transform="matrix(0.5076225184705376 0 0 0.5076225184705376 -8.226334057849112 4.973012563447572)" d="M 784.85938010762 836.86840818182 L 771.15938010762 837.86840818182 C 771.75938010762 845.76840818182 772.65938010762 853.76840818182 774.05938010762 861.66840818182 L 787.55938010762 859.36840818182 C 786.35938010762 851.86840818182 785.45938010762 844.36840818182 784.85938010762 836.86840818182 Z"/><path fill="#305a8f" transform="matrix(0.5076225184705376 0 0 0.5076225184705376 -8.226334057849112 4.973012563447572)" d="M 1019.25938010762 588.46840818182 C 1026.75938010762 588.56840818182 1034.35938010762 589.06840818182 1041.85938010762 589.86840818182 L 1043.35938010762 576.26840818182 C 1035.45938010762 575.36840818182 1027.45938010762 574.86840818182 1019.45938010762 574.76840818182 L 1019.25938010762 588.46840818182 Z"/><path fill="#305a8f" transform="matrix(0.5076225184705376 0 0 0.5076225184705376 -8.226334057849112 4.973012563447572)" d="M 821.85938010762 969.96840818182 C 826.75938010762 976.26840818182 831.95938010762 982.36840818182 837.45938010762 988.16840818182 L 847.45938010762 978.76840818182 C 842.25938010762 973.26840818182 837.35938010762 967.56840818182 832.75938010762 961.56840818182 L 821.85938010762 969.96840818182 Z"/><path fill="#305a8f" transform="matrix(0.5076225184705376 0 0 0.5076225184705376 -8.226334057849112 4.973012563447572)" d="M 925.85938010762 591.66840818182 L 930.85938010762 604.46840818182 C 937.85938010762 601.66840818182 945.05938010762 599.26840818182 952.25938010762 597.26840818182 L 948.55938010762 584.06840818182 C 940.95938010762 586.16840818182 933.25938010762 588.76840818182 925.85938010762 591.66840818182 Z"/><path fill="#305a8f" transform="matrix(0.5076225184705376 0 0 0.5076225184705376 -8.226334057849112 4.973012563447572)" d="M 1064.15938010762 593.56840818182 C 1071.45938010762 595.16840818182 1078.85938010762 597.06840818182 1085.95938010762 599.36840818182 L 1090.15938010762 586.26840818182 C 1082.55938010762 583.86840818182 1074.75938010762 581.76840818182 1067.05938010762 580.16840818182 L 1064.15938010762 593.56840818182 Z"/><path fill="#305a8f" transform="matrix(0.5076225184705376 0 0 0.5076225184705376 -8.226334057849112 4.973012563447572)" d="M 971.85938010762 578.66840818182 L 974.25938010762 592.16840818182 C 981.65938010762 590.86840818182 989.15938010762 589.86840818182 996.65938010762 589.26840818182 L 995.55938010762 575.56840818182 C 987.65938010762 576.16840818182 979.65938010762 577.26840818182 971.85938010762 578.66840818182 Z"/><path fill="#305a8f" transform="matrix(0.5076225184705376 0 0 0.5076225184705376 -8.226334057849112 4.973012563447572)" d="M 854.75938010762 1004.76840818182 C 860.75938010762 1009.96840818182 867.05938010762 1014.96840818182 873.55938010762 1019.56840818182 L 881.55938010762 1008.36840818182 C 875.45938010762 1003.96840818182 869.45938010762 999.26840818182 863.85938010762 994.36840818182 L 854.75938010762 1004.76840818182 Z"/><path fill="#305a8f" transform="matrix(0.5076225184705376 0 0 0.5076225184705376 -8.226334057849112 4.973012563447572)" d="M 904.05938010762 601.56840818182 C 896.95938010762 605.16840818182 890.05938010762 609.16840818182 883.35938010762 613.46840818182 L 890.75938010762 624.96840818182 C 897.05938010762 620.86840818182 903.65938010762 617.06840818182 910.35938010762 613.66840818182 L 904.05938010762 601.56840818182 Z"/><path fill="#305a8f" transform="matrix(0.5076225184705376 0 0 0.5076225184705376 -8.226334057849112 4.973012563447572)" d="M 893.65938010762 1032.46840818182 C 900.55938010762 1036.46840818182 907.75938010762 1040.06840818182 914.95938010762 1043.36840818182 L 920.55938010762 1030.86840818182 C 913.75938010762 1027.76840818182 906.95938010762 1024.26840818182 900.45938010762 1020.56840818182 L 893.65938010762 1032.46840818182 Z"/><path fill="#305a8f" transform="matrix(0.5076225184705376 0 0 0.5076225184705376 -8.226334057849112 4.973012563447572)" d="M 1123.55938010762 599.66840818182 C 1120.05938010762 597.96840818182 1116.45938010762 596.26840818182 1112.85938010762 594.76840818182 L 1107.45938010762 607.36840818182 C 1110.85938010762 608.86840818182 1114.25938010762 610.36840818182 1117.55938010762 611.96840818182 L 1123.55938010762 599.66840818182 Z"/><path id="text" fill="#305a8f" transform="matrix(0.7005155794664873 0 0 0.7005155794664873 -2.6227303295225286 374.9341179107827)" d="M 272.208 371.838048 L 272.208 377.022048 C 272.208 388.478048 270.048 396.798048 265.728 401.982048 C 261.408 407.166048 254.48 409.758048 244.944 409.758048 C 235.408 409.758048 228.512 407.166048 224.256 401.982048 C 220 396.798048 217.872 388.382048 217.872 376.734048 L 217.872 371.742048 C 217.872 361.118048 220.032 353.214048 224.352 348.030048 C 228.672 342.846048 235.52 340.254048 244.896 340.254048 C 254.272 340.254048 261.168 342.878048 265.584 348.126048 C 270 353.374048 272.208 361.278048 272.208 371.838048 Z M 258.864 376.734048 L 258.864 373.182048 C 258.864 367.038048 258.096 362.142048 256.56 358.494048 C 254.768 354.270048 250.928 352.158048 245.04 352.158048 C 239.088 352.158048 235.216 354.270048 233.424 358.494048 C 231.952 361.950048 231.216 366.846048 231.216 373.182048 L 231.216 376.734048 C 231.216 384.990048 232.368 390.558048 234.672 393.438048 C 235.568 394.654048 236.896 395.694048 238.656 396.558048 C 240.416 397.422048 242.528 397.854048 244.992 397.854048 C 247.456 397.854048 249.552 397.438048 251.28 396.606048 C 253.008 395.774048 254.352 394.750048 255.312 393.534048 C 256.272 392.318048 257.008 390.718048 257.52 388.734048 C 258.416 385.598048 258.864 381.598048 258.864 376.734048 Z M 334.032 372.990048 L 357.552 409.182048 L 342 409.182048 L 325.872 383.358048 L 316.56 395.838048 L 316.56 409.182048 L 303.216 409.182048 L 303.216 340.830048 L 316.56 340.830048 L 316.56 379.038048 L 342.384 340.830048 L 355.824 340.830048 L 334.032 372.990048 Z M 439.632 340.830048 L 439.632 402.270048 C 439.632 404.382048 438.992 406.190048 437.712 407.694048 C 436.432 409.198048 434.928 409.950048 433.2 409.950048 C 428.784 409.950048 425.168 407.390048 422.352 402.270048 L 398.736 365.310048 L 398.736 409.182048 L 385.392 409.182048 L 385.392 340.830048 L 398.256 340.830048 L 426.288 385.566048 L 426.288 340.830048 L 439.632 340.830048 Z M 524.592 409.182048 L 510.672 409.182048 L 506.832 397.374048 L 483.888 397.374048 L 480.144 409.182048 L 466.224 409.182048 L 488.112 346.590048 C 489.072 344.414048 490.144 342.910048 491.328 342.078048 C 492.512 341.246048 493.968 340.830048 495.696 340.830048 C 497.424 340.830048 498.816 341.214048 499.872 341.982048 C 500.928 342.750048 501.872 344.286048 502.704 346.590048 L 524.592 409.182048 Z M 503.76 386.142048 L 495.696 359.070048 L 487.248 386.142048 L 503.76 386.142048 Z M 605.136 409.182048 L 591.216 409.182048 L 587.376 397.374048 L 564.432 397.374048 L 560.688 409.182048 L 546.768 409.182048 L 568.656 346.590048 C 569.616 344.414048 570.688 342.910048 571.872 342.078048 C 573.056 341.246048 574.512 340.830048 576.24 340.830048 C 577.968 340.830048 579.36 341.214048 580.416 341.982048 C 581.472 342.750048 582.416 344.286048 583.248 346.590048 L 605.136 409.182048 Z M 584.304 386.142048 L 576.24 359.070048 L 567.792 386.142048 L 584.304 386.142048 Z M 727.248 409.182048 L 713.328 409.182048 L 709.488 397.374048 L 686.544 397.374048 L 682.8 409.182048 L 668.88 409.182048 L 690.768 346.590048 C 691.728 344.414048 692.8 342.910048 693.984 342.078048 C 695.168 341.246048 696.624 340.830048 698.352 340.830048 C 700.08 340.830048 701.472 341.214048 702.528 341.982048 C 703.584 342.750048 704.528 344.286048 705.36 346.590048 L 727.248 409.182048 Z M 706.416 386.142048 L 698.352 359.070048 L 689.904 386.142048 L 706.416 386.142048 Z M 769.296 409.182048 L 755.952 409.182048 L 755.952 340.830048 L 769.296 340.830048 L 769.296 409.182048 Z M 856.272 409.182048 L 840.816 409.182048 L 827.472 383.838048 L 817.872 383.838048 L 817.872 409.182048 L 804.528 409.182048 L 804.528 355.518048 C 804.528 350.398048 805.712 346.670048 808.08 344.334048 C 810.448 341.998048 814.416 340.830048 819.984 340.830048 L 831.312 340.830048 C 838.096 340.830048 843.488 342.894048 847.488 347.022048 C 851.488 351.150048 853.488 356.382048 853.488 362.718048 C 853.488 367.326048 852.288 371.310048 849.888 374.670048 C 847.488 378.030048 844.528 380.350048 841.008 381.630048 L 856.272 409.182048 Z M 837.408 369.774048 C 839.232 367.822048 840.144 365.390048 840.144 362.478048 C 840.144 359.566048 839.264 357.214048 837.504 355.422048 C 835.744 353.630048 833.392 352.734048 830.448 352.734048 L 823.824 352.734048 C 819.856 352.734048 817.872 354.750048 817.872 358.782048 L 817.872 372.702048 L 830.448 372.702048 C 833.264 372.702048 835.584 371.726048 837.408 369.774048 Z M 928.752 409.182048 L 908.4 409.182048 C 900.72 409.182048 895.168 407.694048 891.744 404.718048 C 888.32 401.742048 886.608 396.894048 886.608 390.174048 L 886.608 340.830048 L 899.952 340.830048 L 899.952 390.174048 C 899.952 392.862048 900.56 394.718048 901.776 395.742048 C 902.992 396.766048 905.2 397.278048 908.4 397.278048 L 928.752 397.278048 L 928.752 409.182048 Z M 972.048 409.182048 L 958.704 409.182048 L 958.704 340.830048 L 972.048 340.830048 L 972.048 409.182048 Z M 1060.56 340.830048 L 1060.56 402.270048 C 1060.56 404.382048 1059.92 406.190048 1058.64 407.694048 C 1057.36 409.198048 1055.856 409.950048 1054.128 409.950048 C 1049.712 409.950048 1046.096 407.390048 1043.28 402.270048 L 1019.664 365.310048 L 1019.664 409.182048 L 1006.32 409.182048 L 1006.32 340.830048 L 1019.184 340.830048 L 1047.216 385.566048 L 1047.216 340.830048 L 1060.56 340.830048 Z M 1138.704 409.182048 L 1114.512 409.182048 C 1106.832 409.182048 1101.44 407.854048 1098.336 405.198048 C 1095.232 402.542048 1093.68 397.854048 1093.68 391.134048 L 1093.68 340.830048 L 1138.704 340.830048 L 1138.704 352.734048 L 1107.024 352.734048 L 1107.024 368.766048 L 1129.2 368.766048 L 1128.24 380.670048 L 1107.024 380.670048 L 1107.024 390.174048 C 1107.024 392.862048 1107.632 394.718048 1108.848 395.742048 C 1110.064 396.766048 1112.272 397.278048 1115.472 397.278048 L 1138.704 397.278048 L 1138.704 409.182048 Z M 1217.136 389.022048 C 1217.136 395.486048 1214.768 400.558048 1210.032 404.238048 C 1205.296 407.918048 1199.248 409.758048 1191.888 409.758048 C 1186.064 409.758048 1180.432 408.158048 1174.992 404.958048 C 1172.304 403.294048 1170.096 400.942048 1168.368 397.902048 C 1166.64 394.862048 1165.776 391.390048 1165.776 387.486048 L 1177.872 386.910048 C 1177.872 390.366048 1179.344 393.054048 1182.288 394.974048 C 1185.232 396.894048 1188.496 397.854048 1192.08 397.854048 C 1200.08 397.854048 1204.08 395.038048 1204.08 389.406048 C 1204.08 384.798048 1201.36 382.078048 1195.92 381.246048 L 1184.784 380.094048 C 1179.216 379.262048 1174.8 377.278048 1171.536 374.142048 C 1168.272 371.006048 1166.64 366.494048 1166.64 360.606048 C 1166.64 354.718048 1168.976 349.854048 1173.648 346.014048 C 1178.32 342.174048 1184.224 340.254048 1191.36 340.254048 C 1198.496 340.254048 1204.24 342.062048 1208.592 345.678048 C 1212.944 349.294048 1215.12 353.950048 1215.12 359.646048 L 1203.216 360.222048 C 1202.128 354.654048 1198.384 351.870048 1191.984 351.870048 C 1188.08 351.870048 1185.024 352.702048 1182.816 354.366048 C 1180.608 356.030048 1179.504 357.998048 1179.504 360.270048 C 1179.504 362.542048 1180.304 364.334048 1181.904 365.646048 C 1183.504 366.958048 1185.488 367.774048 1187.856 368.094048 L 1198.8 369.246048 C 1211.024 370.910048 1217.136 377.502048 1217.136 389.022048 Z"/><path id="text" fill="#305a8f" transform="matrix(0.3502577897332437 0 0 0.3502577897332437 -2.723604572965703 416.62320107599226)" d="M 1019.136 804.732096 L 1019.136 801.276096 C 1019.136 800.572096 1019.488 800.220096 1020.192 800.220096 L 1022.976 800.220096 C 1023.68 800.220096 1024.032 800.572096 1024.032 801.276096 L 1024.032 804.444096 C 1024.032 810.844096 1027.136 814.044096 1033.344 814.044096 L 1043.328 814.044096 C 1049.536 814.044096 1052.64 810.812096 1052.64 804.348096 L 1052.64 800.316096 C 1052.64 797.500096 1051.488 795.292096 1049.184 793.692096 C 1046.88 792.092096 1044.096 790.940096 1040.832 790.236096 C 1037.568 789.532096 1034.288 788.796096 1030.992 788.028096 C 1027.696 787.260096 1024.896 785.852096 1022.592 783.804096 C 1020.288 781.756096 1019.136 779.004096 1019.136 775.548096 L 1019.136 770.268096 C 1019.136 766.044096 1020.352 762.716096 1022.784 760.284096 C 1025.216 757.852096 1028.512 756.636096 1032.672 756.636096 L 1043.808 756.636096 C 1047.968 756.636096 1051.264 757.852096 1053.696 760.284096 C 1056.128 762.716096 1057.344 766.044096 1057.344 770.268096 L 1057.344 772.956096 C 1057.344 773.660096 1056.992 774.012096 1056.288 774.012096 L 1053.504 774.012096 C 1052.8 774.012096 1052.448 773.660096 1052.448 772.956096 L 1052.448 770.556096 C 1052.448 764.156096 1049.344 760.956096 1043.136 760.956096 L 1033.248 760.956096 C 1027.104 760.956096 1024.032 764.220096 1024.032 770.748096 L 1024.032 775.548096 C 1024.032 779.964096 1027.968 782.940096 1035.84 784.476096 C 1039.104 785.116096 1042.384 785.852096 1045.68 786.684096 C 1048.976 787.516096 1051.776 789.020096 1054.08 791.196096 C 1056.384 793.372096 1057.536 796.316096 1057.536 800.028096 L 1057.536 804.732096 C 1057.536 808.956096 1056.32 812.284096 1053.888 814.716096 C 1051.456 817.148096 1048.16 818.364096 1044 818.364096 L 1032.672 818.364096 C 1028.512 818.364096 1025.216 817.148096 1022.784 814.716096 C 1020.352 812.284096 1019.136 808.956096 1019.136 804.732096 Z M 1105.056 818.364096 L 1084.992 818.364096 C 1080.832 818.364096 1077.552 817.148096 1075.152 814.716096 C 1072.752 812.284096 1071.552 808.956096 1071.552 804.732096 L 1071.552 783.036096 C 1071.552 778.812096 1072.752 775.484096 1075.152 773.052096 C 1077.552 770.620096 1080.832 769.404096 1084.992 769.404096 L 1093.248 769.404096 C 1097.408 769.404096 1100.704 770.620096 1103.136 773.052096 C 1105.568 775.484096 1106.784 778.812096 1106.784 783.036096 L 1106.784 795.228096 C 1106.784 795.996096 1106.4 796.380096 1105.632 796.380096 L 1077.216 796.380096 C 1076.64 796.380096 1076.352 796.668096 1076.352 797.244096 L 1076.352 804.636096 C 1076.352 807.644096 1077.12 809.964096 1078.656 811.596096 C 1080.192 813.228096 1082.432 814.044096 1085.376 814.044096 L 1105.056 814.044096 C 1105.76 814.044096 1106.112 814.396096 1106.112 815.100096 L 1106.112 817.308096 C 1106.112 818.012096 1105.76 818.364096 1105.056 818.364096 Z M 1077.216 792.540096 L 1101.12 792.540096 C 1101.696 792.540096 1101.984 792.252096 1101.984 791.676096 L 1101.984 783.132096 C 1101.984 780.124096 1101.216 777.804096 1099.68 776.172096 C 1098.144 774.540096 1095.904 773.724096 1092.96 773.724096 L 1085.376 773.724096 C 1082.432 773.724096 1080.192 774.540096 1078.656 776.172096 C 1077.12 777.804096 1076.352 780.124096 1076.352 783.132096 L 1076.352 791.676096 C 1076.352 792.252096 1076.64 792.540096 1077.216 792.540096 Z M 1152.288 818.364096 L 1132.224 818.364096 C 1128.064 818.364096 1124.784 817.148096 1122.384 814.716096 C 1119.984 812.284096 1118.784 808.956096 1118.784 804.732096 L 1118.784 783.036096 C 1118.784 778.812096 1119.984 775.484096 1122.384 773.052096 C 1124.784 770.620096 1128.064 769.404096 1132.224 769.404096 L 1140.48 769.404096 C 1144.64 769.404096 1147.936 770.620096 1150.368 773.052096 C 1152.8 775.484096 1154.016 778.812096 1154.016 783.036096 L 1154.016 795.228096 C 1154.016 795.996096 1153.632 796.380096 1152.864 796.380096 L 1124.448 796.380096 C 1123.872 796.380096 1123.584 796.668096 1123.584 797.244096 L 1123.584 804.636096 C 1123.584 807.644096 1124.352 809.964096 1125.888 811.596096 C 1127.424 813.228096 1129.664 814.044096 1132.608 814.044096 L 1152.288 814.044096 C 1152.992 814.044096 1153.344 814.396096 1153.344 815.100096 L 1153.344 817.308096 C 1153.344 818.012096 1152.992 818.364096 1152.288 818.364096 Z M 1124.448 792.540096 L 1148.352 792.540096 C 1148.928 792.540096 1149.216 792.252096 1149.216 791.676096 L 1149.216 783.132096 C 1149.216 780.124096 1148.448 777.804096 1146.912 776.172096 C 1145.376 774.540096 1143.136 773.724096 1140.192 773.724096 L 1132.608 773.724096 C 1129.664 773.724096 1127.424 774.540096 1125.888 776.172096 C 1124.352 777.804096 1123.584 780.124096 1123.584 783.132096 L 1123.584 791.676096 C 1123.584 792.252096 1123.872 792.540096 1124.448 792.540096 Z M 1207.008 818.364096 L 1204.224 818.364096 C 1203.52 818.364096 1203.168 817.980096 1203.168 817.212096 L 1203.168 761.820096 C 1203.168 761.244096 1202.848 760.956096 1202.208 760.956096 L 1188.288 760.956096 C 1187.52 760.956096 1187.136 760.604096 1187.136 759.900096 L 1187.136 757.692096 C 1187.136 756.988096 1187.52 756.636096 1188.288 756.636096 L 1222.848 756.636096 C 1223.616 756.636096 1224 756.988096 1224 757.692096 L 1224 759.900096 C 1224 760.604096 1223.616 760.956096 1222.848 760.956096 L 1208.928 760.956096 C 1208.288 760.956096 1207.968 761.244096 1207.968 761.820096 L 1207.968 817.212096 C 1207.968 817.980096 1207.648 818.364096 1207.008 818.364096 Z M 1236.672 818.364096 L 1233.888 818.364096 C 1233.248 818.364096 1232.928 817.980096 1232.928 817.212096 L 1232.928 752.028096 C 1232.928 751.260096 1233.248 750.876096 1233.888 750.876096 L 1236.672 750.876096 C 1237.376 750.876096 1237.728 751.260096 1237.728 752.028096 L 1237.728 774.396096 L 1238.112 774.396096 C 1239.904 771.068096 1243.232 769.404096 1248.096 769.404096 L 1254.432 769.404096 C 1258.528 769.404096 1261.76 770.620096 1264.128 773.052096 C 1266.496 775.484096 1267.68 778.812096 1267.68 783.036096 L 1267.68 817.212096 C 1267.68 817.980096 1267.36 818.364096 1266.72 818.364096 L 1263.936 818.364096 C 1263.232 818.364096 1262.88 817.980096 1262.88 817.212096 L 1262.88 783.228096 C 1262.88 780.220096 1262.112 777.884096 1260.576 776.220096 C 1259.04 774.556096 1256.8 773.724096 1253.856 773.724096 L 1247.616 773.724096 C 1244.544 773.724096 1242.128 774.540096 1240.368 776.172096 C 1238.608 777.804096 1237.728 780.124096 1237.728 783.132096 L 1237.728 817.212096 C 1237.728 817.980096 1237.376 818.364096 1236.672 818.364096 Z M 1314.144 818.364096 L 1294.08 818.364096 C 1289.92 818.364096 1286.64 817.148096 1284.24 814.716096 C 1281.84 812.284096 1280.64 808.956096 1280.64 804.732096 L 1280.64 783.036096 C 1280.64 778.812096 1281.84 775.484096 1284.24 773.052096 C 1286.64 770.620096 1289.92 769.404096 1294.08 769.404096 L 1302.336 769.404096 C 1306.496 769.404096 1309.792 770.620096 1312.224 773.052096 C 1314.656 775.484096 1315.872 778.812096 1315.872 783.036096 L 1315.872 795.228096 C 1315.872 795.996096 1315.488 796.380096 1314.72 796.380096 L 1286.304 796.380096 C 1285.728 796.380096 1285.44 796.668096 1285.44 797.244096 L 1285.44 804.636096 C 1285.44 807.644096 1286.208 809.964096 1287.744 811.596096 C 1289.28 813.228096 1291.52 814.044096 1294.464 814.044096 L 1314.144 814.044096 C 1314.848 814.044096 1315.2 814.396096 1315.2 815.100096 L 1315.2 817.308096 C 1315.2 818.012096 1314.848 818.364096 1314.144 818.364096 Z M 1286.304 792.540096 L 1310.208 792.540096 C 1310.784 792.540096 1311.072 792.252096 1311.072 791.676096 L 1311.072 783.132096 C 1311.072 780.124096 1310.304 777.804096 1308.768 776.172096 C 1307.232 774.540096 1304.992 773.724096 1302.048 773.724096 L 1294.464 773.724096 C 1291.52 773.724096 1289.28 774.540096 1287.744 776.172096 C 1286.208 777.804096 1285.44 780.124096 1285.44 783.132096 L 1285.44 791.676096 C 1285.44 792.252096 1285.728 792.540096 1286.304 792.540096 Z M 1355.04 804.732096 L 1355.04 801.276096 C 1355.04 800.572096 1355.392 800.220096 1356.096 800.220096 L 1358.88 800.220096 C 1359.584 800.220096 1359.936 800.572096 1359.936 801.276096 L 1359.936 804.444096 C 1359.936 810.844096 1363.04 814.044096 1369.248 814.044096 L 1379.232 814.044096 C 1385.44 814.044096 1388.544 810.812096 1388.544 804.348096 L 1388.544 800.316096 C 1388.544 797.500096 1387.392 795.292096 1385.088 793.692096 C 1382.784 792.092096 1380 790.940096 1376.736 790.236096 C 1373.472 789.532096 1370.192 788.796096 1366.896 788.028096 C 1363.6 787.260096 1360.8 785.852096 1358.496 783.804096 C 1356.192 781.756096 1355.04 779.004096 1355.04 775.548096 L 1355.04 770.268096 C 1355.04 766.044096 1356.256 762.716096 1358.688 760.284096 C 1361.12 757.852096 1364.416 756.636096 1368.576 756.636096 L 1379.712 756.636096 C 1383.872 756.636096 1387.168 757.852096 1389.6 760.284096 C 1392.032 762.716096 1393.248 766.044096 1393.248 770.268096 L 1393.248 772.956096 C 1393.248 773.660096 1392.896 774.012096 1392.192 774.012096 L 1389.408 774.012096 C 1388.704 774.012096 1388.352 773.660096 1388.352 772.956096 L 1388.352 770.556096 C 1388.352 764.156096 1385.248 760.956096 1379.04 760.956096 L 1369.152 760.956096 C 1363.008 760.956096 1359.936 764.220096 1359.936 770.748096 L 1359.936 775.548096 C 1359.936 779.964096 1363.872 782.940096 1371.744 784.476096 C 1375.008 785.116096 1378.288 785.852096 1381.584 786.684096 C 1384.88 787.516096 1387.68 789.020096 1389.984 791.196096 C 1392.288 793.372096 1393.44 796.316096 1393.44 800.028096 L 1393.44 804.732096 C 1393.44 808.956096 1392.224 812.284096 1389.792 814.716096 C 1387.36 817.148096 1384.064 818.364096 1379.904 818.364096 L 1368.576 818.364096 C 1364.416 818.364096 1361.12 817.148096 1358.688 814.716096 C 1356.256 812.284096 1355.04 808.956096 1355.04 804.732096 Z M 1427.52 818.364096 L 1421.184 818.364096 C 1417.088 818.364096 1413.856 817.148096 1411.488 814.716096 C 1409.12 812.284096 1407.936 808.956096 1407.936 804.732096 L 1407.936 770.556096 C 1407.936 769.788096 1408.256 769.404096 1408.896 769.404096 L 1411.68 769.404096 C 1412.384 769.404096 1412.736 769.788096 1412.736 770.556096 L 1412.736 804.540096 C 1412.736 807.548096 1413.504 809.884096 1415.04 811.548096 C 1416.576 813.212096 1418.816 814.044096 1421.76 814.044096 L 1428 814.044096 C 1431.072 814.044096 1433.488 813.228096 1435.248 811.596096 C 1437.008 809.964096 1437.888 807.644096 1437.888 804.636096 L 1437.888 770.556096 C 1437.888 769.788096 1438.24 769.404096 1438.944 769.404096 L 1441.728 769.404096 C 1442.368 769.404096 1442.688 769.788096 1442.688 770.556096 L 1442.688 817.212096 C 1442.688 817.980096 1442.368 818.364096 1441.728 818.364096 L 1438.944 818.364096 C 1438.24 818.364096 1437.888 817.980096 1437.888 817.212096 L 1437.888 813.372096 L 1437.504 813.372096 C 1435.84 816.700096 1432.512 818.364096 1427.52 818.364096 Z M 1460.832 818.364096 L 1458.048 818.364096 C 1457.408 818.364096 1457.088 817.980096 1457.088 817.212096 L 1457.088 770.556096 C 1457.088 769.788096 1457.408 769.404096 1458.048 769.404096 L 1460.832 769.404096 C 1461.536 769.404096 1461.888 769.788096 1461.888 770.556096 L 1461.888 774.396096 L 1462.272 774.396096 C 1464.064 771.068096 1467.392 769.404096 1472.256 769.404096 L 1478.592 769.404096 C 1482.688 769.404096 1485.92 770.620096 1488.288 773.052096 C 1490.656 775.484096 1491.84 778.812096 1491.84 783.036096 L 1491.84 817.212096 C 1491.84 817.980096 1491.52 818.364096 1490.88 818.364096 L 1488.096 818.364096 C 1487.392 818.364096 1487.04 817.980096 1487.04 817.212096 L 1487.04 783.228096 C 1487.04 780.220096 1486.272 777.884096 1484.736 776.220096 C 1483.2 774.556096 1480.96 773.724096 1478.016 773.724096 L 1471.776 773.724096 C 1468.704 773.724096 1466.288 774.540096 1464.528 776.172096 C 1462.768 777.804096 1461.888 780.124096 1461.888 783.132096 L 1461.888 817.212096 C 1461.888 817.980096 1461.536 818.364096 1460.832 818.364096 Z M 1521.6 818.364096 L 1504.896 818.364096 C 1504.192 818.364096 1503.84 818.012096 1503.84 817.308096 L 1503.84 815.100096 C 1503.84 814.460096 1504.192 814.140096 1504.896 814.140096 L 1521.12 814.140096 C 1526.88 814.140096 1529.76 811.900096 1529.76 807.420096 L 1529.76 805.116096 C 1529.76 800.956096 1527.968 798.236096 1524.384 796.956096 L 1512.384 792.348096 C 1509.12 791.068096 1506.8 789.564096 1505.424 787.836096 C 1504.048 786.108096 1503.36 783.708096 1503.36 780.636096 C 1503.36 773.148096 1507.488 769.404096 1515.744 769.404096 L 1531.296 769.404096 C 1532 769.404096 1532.352 769.756096 1532.352 770.460096 L 1532.352 772.668096 C 1532.352 773.308096 1532 773.628096 1531.296 773.628096 L 1516.224 773.628096 C 1513.6 773.628096 1511.632 774.204096 1510.32 775.356096 C 1509.008 776.508096 1508.352 777.852096 1508.352 779.388096 L 1508.352 781.596096 C 1508.352 783.388096 1508.848 784.796096 1509.84 785.820096 C 1510.832 786.844096 1512.352 787.708096 1514.4 788.412096 L 1526.4 793.212096 C 1529.728 794.300096 1531.952 795.916096 1533.072 798.060096 C 1534.192 800.204096 1534.752 803.196096 1534.752 807.036096 C 1534.752 810.876096 1533.68 813.724096 1531.536 815.580096 C 1529.392 817.436096 1526.08 818.364096 1521.6 818.364096 Z M 1579.68 818.364096 L 1559.616 818.364096 C 1555.456 818.364096 1552.176 817.148096 1549.776 814.716096 C 1547.376 812.284096 1546.176 808.956096 1546.176 804.732096 L 1546.176 783.036096 C 1546.176 778.812096 1547.376 775.484096 1549.776 773.052096 C 1552.176 770.620096 1555.456 769.404096 1559.616 769.404096 L 1567.872 769.404096 C 1572.032 769.404096 1575.328 770.620096 1577.76 773.052096 C 1580.192 775.484096 1581.408 778.812096 1581.408 783.036096 L 1581.408 795.228096 C 1581.408 795.996096 1581.024 796.380096 1580.256 796.380096 L 1551.84 796.380096 C 1551.264 796.380096 1550.976 796.668096 1550.976 797.244096 L 1550.976 804.636096 C 1550.976 807.644096 1551.744 809.964096 1553.28 811.596096 C 1554.816 813.228096 1557.056 814.044096 1560 814.044096 L 1579.68 814.044096 C 1580.384 814.044096 1580.736 814.396096 1580.736 815.100096 L 1580.736 817.308096 C 1580.736 818.012096 1580.384 818.364096 1579.68 818.364096 Z M 1551.84 792.540096 L 1575.744 792.540096 C 1576.32 792.540096 1576.608 792.252096 1576.608 791.676096 L 1576.608 783.132096 C 1576.608 780.124096 1575.84 777.804096 1574.304 776.172096 C 1572.768 774.540096 1570.528 773.724096 1567.584 773.724096 L 1560 773.724096 C 1557.056 773.724096 1554.816 774.540096 1553.28 776.172096 C 1551.744 777.804096 1550.976 780.124096 1550.976 783.132096 L 1550.976 791.676096 C 1550.976 792.252096 1551.264 792.540096 1551.84 792.540096 Z M 1596.48 773.724096 L 1590.624 773.724096 C 1589.92 773.724096 1589.568 773.404096 1589.568 772.764096 L 1589.568 770.460096 C 1589.568 769.756096 1589.92 769.404096 1590.624 769.404096 L 1596.48 769.404096 C 1597.056 769.404096 1597.344 769.116096 1597.344 768.540096 L 1597.344 760.764096 C 1597.344 759.996096 1597.696 759.612096 1598.4 759.612096 L 1601.184 759.612096 C 1601.888 759.612096 1602.24 759.996096 1602.24 760.764096 L 1602.24 768.540096 C 1602.24 769.116096 1602.528 769.404096 1603.104 769.404096 L 1614.528 769.404096 C 1615.232 769.404096 1615.584 769.756096 1615.584 770.460096 L 1615.584 772.764096 C 1615.584 773.404096 1615.232 773.724096 1614.528 773.724096 L 1603.104 773.724096 C 1602.528 773.724096 1602.24 774.012096 1602.24 774.588096 L 1602.24 804.828096 C 1602.24 807.772096 1603.072 810.044096 1604.736 811.644096 C 1606.4 813.244096 1608.736 814.044096 1611.744 814.044096 L 1615.488 814.044096 C 1616.192 814.044096 1616.544 814.396096 1616.544 815.100096 L 1616.544 817.308096 C 1616.544 818.012096 1616.192 818.364096 1615.488 818.364096 L 1611.36 818.364096 C 1607.136 818.364096 1603.744 817.180096 1601.184 814.812096 C 1598.624 812.444096 1597.344 809.180096 1597.344 805.020096 L 1597.344 774.588096 C 1597.344 774.012096 1597.056 773.724096 1596.48 773.724096 Z M 1667.712 818.364096 L 1664.928 818.364096 C 1664.224 818.364096 1663.872 817.980096 1663.872 817.212096 L 1663.872 761.820096 C 1663.872 761.244096 1663.552 760.956096 1662.912 760.956096 L 1648.992 760.956096 C 1648.224 760.956096 1647.84 760.604096 1647.84 759.900096 L 1647.84 757.692096 C 1647.84 756.988096 1648.224 756.636096 1648.992 756.636096 L 1683.552 756.636096 C 1684.32 756.636096 1684.704 756.988096 1684.704 757.692096 L 1684.704 759.900096 C 1684.704 760.604096 1684.32 760.956096 1683.552 760.956096 L 1669.632 760.956096 C 1668.992 760.956096 1668.672 761.244096 1668.672 761.820096 L 1668.672 817.212096 C 1668.672 817.980096 1668.352 818.364096 1667.712 818.364096 Z M 1706.976 818.364096 L 1703.136 818.364096 C 1702.496 818.364096 1702.08 817.980096 1701.888 817.212096 L 1688.448 770.556096 C 1688.256 769.788096 1688.512 769.404096 1689.216 769.404096 L 1692.288 769.404096 C 1692.992 769.404096 1693.408 769.788096 1693.536 770.556096 L 1704.864 812.316096 L 1705.344 812.316096 L 1716.48 770.556096 C 1716.608 769.788096 1717.056 769.404096 1717.824 769.404096 L 1720.608 769.404096 C 1721.376 769.404096 1721.824 769.788096 1721.952 770.556096 L 1732.896 812.316096 L 1733.376 812.316096 L 1744.8 770.556096 C 1744.992 769.788096 1745.408 769.404096 1746.048 769.404096 L 1749.12 769.404096 C 1749.888 769.404096 1750.144 769.788096 1749.888 770.556096 L 1736.544 817.212096 C 1736.352 817.980096 1735.904 818.364096 1735.2 818.364096 L 1731.36 818.364096 C 1730.656 818.364096 1730.208 817.980096 1730.016 817.212096 L 1719.36 776.700096 L 1718.88 776.700096 L 1708.32 817.212096 C 1708.128 817.980096 1707.68 818.364096 1706.976 818.364096 Z M 1759.68 761.340096 L 1759.68 752.124096 C 1759.68 751.420096 1760 751.068096 1760.64 751.068096 L 1763.52 751.068096 C 1764.16 751.068096 1764.48 751.420096 1764.48 752.124096 L 1764.48 761.340096 C 1764.48 762.108096 1764.16 762.492096 1763.52 762.492096 L 1760.64 762.492096 C 1760 762.492096 1759.68 762.108096 1759.68 761.340096 Z M 1759.68 817.212096 L 1759.68 770.556096 C 1759.68 769.788096 1760 769.404096 1760.64 769.404096 L 1763.424 769.404096 C 1764.128 769.404096 1764.48 769.788096 1764.48 770.556096 L 1764.48 817.212096 C 1764.48 817.980096 1764.16 818.364096 1763.52 818.364096 L 1760.64 818.364096 C 1760 818.364096 1759.68 817.980096 1759.68 817.212096 Z M 1806.72 815.100096 L 1806.72 817.308096 C 1806.72 818.012096 1806.368 818.364096 1805.664 818.364096 L 1791.84 818.364096 C 1787.68 818.364096 1784.4 817.148096 1782 814.716096 C 1779.6 812.284096 1778.4 808.956096 1778.4 804.732096 L 1778.4 783.036096 C 1778.4 778.812096 1779.6 775.484096 1782 773.052096 C 1784.4 770.620096 1787.68 769.404096 1791.84 769.404096 L 1805.664 769.404096 C 1806.368 769.404096 1806.72 769.756096 1806.72 770.460096 L 1806.72 772.764096 C 1806.72 773.404096 1806.368 773.724096 1805.664 773.724096 L 1792.224 773.724096 C 1789.28 773.724096 1787.04 774.556096 1785.504 776.220096 C 1783.968 777.884096 1783.2 780.220096 1783.2 783.228096 L 1783.2 804.540096 C 1783.2 807.548096 1783.968 809.884096 1785.504 811.548096 C 1787.04 813.212096 1789.28 814.044096 1792.224 814.044096 L 1805.664 814.044096 C 1806.368 814.044096 1806.72 814.396096 1806.72 815.100096 Z M 1849.728 818.364096 L 1829.664 818.364096 C 1825.504 818.364096 1822.224 817.148096 1819.824 814.716096 C 1817.424 812.284096 1816.224 808.956096 1816.224 804.732096 L 1816.224 783.036096 C 1816.224 778.812096 1817.424 775.484096 1819.824 773.052096 C 1822.224 770.620096 1825.504 769.404096 1829.664 769.404096 L 1837.92 769.404096 C 1842.08 769.404096 1845.376 770.620096 1847.808 773.052096 C 1850.24 775.484096 1851.456 778.812096 1851.456 783.036096 L 1851.456 795.228096 C 1851.456 795.996096 1851.072 796.380096 1850.304 796.380096 L 1821.888 796.380096 C 1821.312 796.380096 1821.024 796.668096 1821.024 797.244096 L 1821.024 804.636096 C 1821.024 807.644096 1821.792 809.964096 1823.328 811.596096 C 1824.864 813.228096 1827.104 814.044096 1830.048 814.044096 L 1849.728 814.044096 C 1850.432 814.044096 1850.784 814.396096 1850.784 815.100096 L 1850.784 817.308096 C 1850.784 818.012096 1850.432 818.364096 1849.728 818.364096 Z M 1821.888 792.540096 L 1845.792 792.540096 C 1846.368 792.540096 1846.656 792.252096 1846.656 791.676096 L 1846.656 783.132096 C 1846.656 780.124096 1845.888 777.804096 1844.352 776.172096 C 1842.816 774.540096 1840.576 773.724096 1837.632 773.724096 L 1830.048 773.724096 C 1827.104 773.724096 1824.864 774.540096 1823.328 776.172096 C 1821.792 777.804096 1821.024 780.124096 1821.024 783.132096 L 1821.024 791.676096 C 1821.024 792.252096 1821.312 792.540096 1821.888 792.540096 Z"/></svg>